<?xml version="1.0" encoding="UTF-8"?>
<svg id="Livello_2" data-name="Livello 2" xmlns="http://www.w3.org/2000/svg" viewBox="0 0 264.27 17.86">
  <defs>
    <style>
      .cls-1 {
        fill: #262626;
        stroke-width: 0px;
      }
    </style>
  </defs>
  <g id="Livello_1-2" data-name="Livello 1">
    <g>
      <path class="cls-1" d="M56.76,17.27l-18.24-12.97v11.24c0,1.19-.98,2.17-2.17,2.17s-2.17-.98-2.17-2.17V2.17C34.18.98,35.15,0,36.35,0h2.71c.47,0,.9.15,1.3.4l18.24,13.01V2.17C58.6.98,59.57,0,60.77,0s2.13.98,2.13,2.17v13.37c0,1.19-.98,2.17-2.13,2.17h-2.71c-.47,0-.9-.15-1.3-.43"/>
      <path class="cls-1" d="M28.22,14.17L17.38.76c-.43-.5-1.08-.79-1.73-.76h-2.71c-.61,0-1.19.25-1.55.72l-2.46,3.03L.51,14.17C0,14.78-.14,15.61.15,16.34c.29.72.94,1.23,1.7,1.34.8.11,1.55-.18,2.02-.83l5.06-6.21,5.09-6.32h.69l10.19,12.61c.47.61,1.19.87,1.99.76.76-.11,1.41-.61,1.7-1.34.29-.72.15-1.55-.36-2.17"/>
      <path class="cls-1" d="M103.83,4.3h-10.04v11.23c0,1.19-.98,2.17-2.17,2.17s-2.17-.97-2.17-2.17V4.3h-10.04c-1.19,0-2.13-.98-2.13-2.13S78.22,0,79.41,0h24.42c1.19,0,2.13.98,2.13,2.17s-.94,2.13-2.13,2.13"/>
      <path class="cls-1" d="M112.9,0c-1.19,0-2.13.98-2.13,2.17v13.37c0,1.19.94,2.17,2.13,2.17s2.17-.98,2.17-2.17V4.31h17.09c.47,0,.87.4.87.83,0,.47-.4.83-.87.83h-8.35c-.9,0-1.73.61-2.02,1.52-.29.87,0,1.84.76,2.38l13.51,7.41c.94.72,2.24.51,2.96-.43.69-.97.51-2.31-.47-3.03l-6.4-3.5c2.85,0,5.13-2.31,5.13-5.17S135.01,0,132.15,0h-19.25Z"/>
      <path class="cls-1" d="M155.6.73l-10.87,13.44c-.58.69-.58,1.88-.29,2.53.25.65.9,1.12,1.66,1.16.76.07,1.48-.25,1.92-.94l10.22-12.61h.65l10.19,12.53c.47.65,1.23.94,1.99.83.79-.11,1.44-.61,1.73-1.34.25-.72.14-1.55-.36-2.17l-10.87-13.44c-.36-.47-.94-.76-1.55-.72h-2.89c-.58-.04-1.16.25-1.52.72"/>
      <path class="cls-1" d="M72.22,8.86c0-1.19-.94-2.17-2.13-2.17s-2.17.98-2.17,2.17.98,2.17,2.17,2.17,2.13-.98,2.13-2.17"/>
      <path class="cls-1" d="M181.28.37c-.58-.43-1.37-.47-2.06-.18-.72.33-1.23,1.01-1.3,1.77-.07.8.29,1.55.9,1.99l7.05,4.99-7.05,4.99c-.61.43-.98,1.19-.9,1.99.07.76.58,1.45,1.3,1.73.69.33,1.52.25,2.17-.22l8.35-5.92c.4-.29.87-.4,1.34-.4h2.71c.47-.03.94.11,1.34.4l8.34,5.92c.65.47,1.48.54,2.17.22.72-.29,1.23-.97,1.3-1.73.07-.79-.29-1.55-.9-1.99l-7.04-4.99,7.04-4.99c.62-.43.98-1.19.9-1.99-.07-.76-.58-1.44-1.3-1.77-.69-.29-1.48-.25-2.06.18l-8.45,6c-.4.25-.87.4-1.34.4h-2.71c-.47,0-.94-.15-1.34-.4l-8.45-6Z"/>
      <path class="cls-1" d="M262.1,0h-24.57c-1.19,0-2.17,1.05-2.17,2.2s.98,2.06,2.17,2.13h10.11v11.34c0,1.19.98,2.17,2.17,2.17s2.17-.98,2.17-2.17V4.34h10.12c1.19,0,2.17-.98,2.17-2.17S263.29,0,262.1,0M262.1,1.01c.64,0,1.16.52,1.16,1.16s-.52,1.17-1.16,1.17h-11.12v12.35c0,.64-.52,1.16-1.16,1.16s-1.16-.52-1.16-1.16V3.34h-11.08c-.67-.05-1.2-.55-1.2-1.13,0-.63.55-1.2,1.16-1.2h24.57Z"/>
      <path class="cls-1" d="M228.39,0c-1.19,0-2.17.98-2.17,2.17v13.51c0,1.19.98,2.17,2.17,2.17s2.17-.98,2.17-2.17V2.17c0-1.19-.98-2.17-2.17-2.17M228.39,1.01c.64,0,1.16.52,1.16,1.16v13.51c0,.64-.52,1.16-1.16,1.16s-1.16-.52-1.16-1.16V2.17c0-.64.52-1.16,1.16-1.16"/>
    </g>
  </g>
</svg>