<svg xmlns="http://www.w3.org/2000/svg" id="Livello_1" data-name="Livello 1" viewBox="0 0 1334.88 244.23"><defs><style> .cls-1 { fill: #ff8300; } </style></defs><g><path class="cls-1" d="M116.52,103.09l-.09.92c-1.87,19.72-13.06,40.79-38.89,40.79-34.37,0-46.56-32.13-46.56-59.65s12.19-59.63,46.56-59.63c20.07,0,32.87,10.39,38.03,30.89l.19.77h29.32l-.11-1.12C141.79,22.69,115.32.97,77.55.74,32.8.74,1.55,35.45,1.55,85.15s31.25,84.43,76,84.43c38.22,0,65.41-26.29,67.66-65.41l.06-1.08h-28.74Z"></path><polygon class="cls-1" points="193.74 139.71 193.74 95.11 273.06 95.11 273.06 70.3 193.74 70.3 193.74 30.6 279.44 30.6 279.44 4.45 164.16 4.45 164.16 165.86 280.98 165.86 280.98 139.71 193.74 139.71"></polygon><path class="cls-1" d="M435.26,164.15c-5.27-5.68-8.42-21.11-8.42-41.26,0-25.08-13.52-32.18-21.7-34.18,15.75-6.56,24.38-20.71,24.38-40.15,0-28.43-19.04-44.09-53.61-44.09h-77v161.41h29.89v-65.62h39.98c23.18,0,30.62,10,30.62,41.17,0,7.87,0,16.79,4.39,23.96l.3.49h32.76l-1.59-1.71ZM399.64,52.56c0,15.98-9.05,24.43-26.18,24.43h-44.66V29.25h44.21c12.4,0,26.62,2.65,26.62,23.31Z"></path><path class="cls-1" d="M522.64,4.45h-30.8l-61.31,161.41h30.71l14.8-42.16h61.52l14.81,42.16h31.8L522.64,4.45ZM529.55,100.43h-45.3l22.77-65.34,22.54,65.34Z"></path><path class="cls-1" d="M681.58,77.04c-6.62-2-30.64-8.37-40.9-11.1-2.34-.62-3.93-1.05-4.38-1.17-12.06-3.36-17.92-9.76-17.92-19.54,0-14.54,14.34-19.72,27.76-19.72,20.62,0,31.66,9.13,32.81,27.13l.06.95h29.44v-1.02c0-35.82-30.75-51.85-61.22-51.85-28.11,0-58.36,14.97-58.36,47.84,0,26.12,19.28,36.91,35.44,41.35,7.83,2.19,14.72,3.97,20.8,5.54,10.6,2.74,18.97,4.9,25.91,7.58,5.28,2.04,12.31,6.19,12.31,18.67,0,17.01-16.61,23.08-32.15,23.08-33.71,0-38.75-20.74-38.75-33.11v-1.02h-29.52l.02,1.04c.6,36.24,25.46,57.87,66.49,57.87,29.25,0,63.41-13.35,63.41-50.98,0-14.81-8.19-34.58-31.26-41.56Z"></path><path class="cls-1" d="M803.47,6.09h-29.87l-59.39,158.11h29.81l14.33-41.29h59.54l14.34,41.29h30.87L803.47,6.09ZM810.12,100.1h-43.8l22-63.88,21.8,63.88Z"></path><path class="cls-1" d="M1006.14,162.5c-5.06-5.55-8.08-20.65-8.08-40.4,0-24.52-12.95-31.5-20.82-33.48,9.74-4.18,23.39-14.47,23.39-39.31,0-27.86-18.3-43.21-51.52-43.21h-73.99v158.11h28.78v-64.25h38.36c22.23,0,29.36,9.79,29.36,40.29,0,7.71,0,16.46,4.22,23.47l.3.49h31.55l-1.56-1.7ZM971.84,53.24c0,15.64-8.68,23.9-25.09,23.9h-42.86V30.43h42.43c11.88,0,25.52,2.59,25.52,22.81Z"></path><path class="cls-1" d="M1090.03,6.09h-64.36v158.11h64.36c42.85,0,68.43-29.55,68.43-79.05s-25.58-79.05-68.43-79.05ZM1129.68,85.15c0,27.06-5.93,54.72-49.91,54.72h-25.31V30.43h25.31c43.98,0,49.91,27.66,49.91,54.72Z"></path><path class="cls-1" d="M1251.22,6.09h-29.88l-59.39,158.11h29.8l14.34-41.29h59.54l14.34,41.29h30.87l-59.6-158.11ZM1257.87,100.1h-43.8l22-63.9,21.8,63.9Z"></path></g><path class="cls-1" d="M1297.04,9.36c-3.78,3.82-5.65,8.41-5.65,13.8s1.87,10.07,5.62,13.88c3.76,3.84,8.34,5.74,13.74,5.74s9.97-1.9,13.74-5.74c3.78-3.82,5.66-8.46,5.66-13.88s-1.88-9.98-5.66-13.8c-3.79-3.82-8.37-5.73-13.74-5.73s-9.91,1.91-13.71,5.73M1326.73,39.23c-4.4,4.46-9.74,6.67-15.98,6.67s-11.57-2.22-15.95-6.67c-4.36-4.41-6.54-9.78-6.54-16.07s2.19-11.55,6.6-15.98c4.39-4.41,9.68-6.61,15.89-6.61s11.58,2.21,15.98,6.61c4.4,4.39,6.6,9.72,6.6,15.98s-2.2,11.64-6.6,16.07M1314.99,14.58c-1.09-.62-2.83-.93-5.25-.93h-3.71v9.01h3.93c1.84,0,3.23-.18,4.15-.55,1.7-.67,2.54-1.98,2.54-3.89,0-1.81-.54-3.02-1.66-3.63M1310.32,10.66c3.08,0,5.32.29,6.76.89,2.56,1.07,3.84,3.16,3.84,6.29,0,2.22-.81,3.85-2.42,4.9-.86.56-2.07.95-3.6,1.21,1.95.31,3.37,1.12,4.27,2.43.91,1.33,1.36,2.61,1.36,3.87v1.82c0,.58.02,1.19.06,1.84.03.66.11,1.1.21,1.31l.15.3h-4.09c-.02-.08-.04-.16-.05-.25-.03-.08-.04-.17-.06-.28l-.11-.8v-1.97c0-2.88-.78-4.8-2.33-5.71-.91-.54-2.54-.82-4.85-.82h-3.44v9.82h-4.37V10.66h8.67Z"></path><g><path class="cls-1" d="M92.32,205.98h5.61l13.3,36.65h-5.44l-3.72-10.98h-14.49l-3.97,10.98h-5.09l13.8-36.65ZM100.47,227.61l-5.56-16.19-5.91,16.19h11.48Z"></path><path class="cls-1" d="M116.34,205.98h16.66c2.74,0,5.01.41,6.79,1.22,3.38,1.56,5.07,4.45,5.07,8.66,0,2.2-.45,3.99-1.36,5.39-.91,1.4-2.17,2.52-3.8,3.37,1.43.58,2.51,1.35,3.23,2.3.72.95,1.13,2.49,1.21,4.62l.17,4.91c.05,1.4.17,2.44.35,3.12.3,1.16.83,1.91,1.6,2.25v.82h-6.09c-.17-.32-.3-.72-.4-1.22s-.18-1.46-.25-2.89l-.3-6.11c-.11-2.39-.98-4-2.59-4.82-.92-.45-2.37-.67-4.34-.67h-10.98v15.72h-4.96v-36.65ZM132.47,222.77c2.26,0,4.06-.47,5.37-1.4s1.98-2.61,1.98-5.04c0-2.61-.92-4.39-2.77-5.34-.99-.5-2.3-.75-3.95-.75h-11.79v12.52h11.16Z"></path><path class="cls-1" d="M178.39,205.98v4.37h-12.35v32.28h-5.01v-32.28h-12.35v-4.37h29.71Z"></path><path class="cls-1" d="M183.43,205.98h26.59v4.49h-21.75v11.13h20.11v4.24h-20.11v12.42h22.13v4.37h-26.97v-36.65Z"></path></g><g><path class="cls-1" d="M601.82,205.98h14.65c4.97,0,8.83,1.79,11.57,5.36,2.45,3.23,3.67,7.36,3.67,12.4,0,3.89-.72,7.41-2.17,10.55-2.54,5.55-6.92,8.33-13.12,8.33h-14.6v-36.65ZM615.49,238.39c1.64,0,2.99-.17,4.05-.52,1.89-.65,3.43-1.9,4.64-3.74.96-1.48,1.65-3.38,2.07-5.69.24-1.38.37-2.66.37-3.84,0-4.54-.88-8.07-2.65-10.58-1.76-2.51-4.61-3.77-8.53-3.77h-8.61v28.14h8.66Z"></path><path class="cls-1" d="M638.97,205.98h26.59v4.49h-21.75v11.13h20.11v4.24h-20.11v12.42h22.13v4.37h-26.97v-36.65Z"></path><path class="cls-1" d="M672.57,205.98h4.97v32.28h18.39v4.37h-23.35v-36.65Z"></path></g><g><path class="cls-1" d="M1069.64,205.95h4.97v32.28h18.39v4.37h-23.35v-36.65Z"></path><path class="cls-1" d="M1103.41,205.95v22.65c0,2.66.5,4.87,1.51,6.64,1.49,2.66,4.01,3.99,7.54,3.99,4.24,0,7.12-1.44,8.65-4.32.82-1.56,1.23-3.67,1.23-6.31v-22.65h5.01v20.58c0,4.51-.61,7.98-1.83,10.4-2.24,4.42-6.46,6.64-12.67,6.64s-10.42-2.21-12.64-6.64c-1.22-2.43-1.83-5.9-1.83-10.4v-20.58h5.01Z"></path><path class="cls-1" d="M1138.19,230.77c.11,2.08.58,3.77,1.42,5.06,1.59,2.43,4.38,3.64,8.39,3.64,1.79,0,3.43-.27,4.9-.8,2.85-1.03,4.28-2.88,4.28-5.54,0-2-.6-3.42-1.81-4.27-1.22-.83-3.14-1.55-5.75-2.17l-4.81-1.12c-3.14-.73-5.37-1.54-6.67-2.42-2.26-1.53-3.38-3.82-3.38-6.86,0-3.29,1.11-6,3.33-8.11,2.22-2.11,5.36-3.17,9.42-3.17,3.74,0,6.92.93,9.53,2.78,2.61,1.85,3.92,4.82,3.92,8.89h-4.66c-.24-1.96-.75-3.47-1.53-4.52-1.45-1.91-3.91-2.87-7.39-2.87-2.81,0-4.82.62-6.05,1.85s-1.84,2.66-1.84,4.29c0,1.8.73,3.11,2.18,3.94.95.53,3.1,1.2,6.45,2l4.98,1.17c2.4.57,4.25,1.34,5.56,2.32,2.26,1.71,3.38,4.2,3.38,7.46,0,4.06-1.44,6.96-4.32,8.71-2.88,1.75-6.22,2.62-10.04,2.62-4.44,0-7.92-1.16-10.44-3.49-2.52-2.31-3.75-5.45-3.7-9.41h4.66Z"></path><path class="cls-1" d="M1172.27,230.77c.11,2.08.58,3.77,1.42,5.06,1.59,2.43,4.38,3.64,8.39,3.64,1.79,0,3.43-.27,4.9-.8,2.85-1.03,4.28-2.88,4.28-5.54,0-2-.6-3.42-1.81-4.27-1.22-.83-3.14-1.55-5.75-2.17l-4.81-1.12c-3.14-.73-5.37-1.54-6.67-2.42-2.26-1.53-3.38-3.82-3.38-6.86,0-3.29,1.11-6,3.33-8.11,2.22-2.11,5.36-3.17,9.42-3.17,3.74,0,6.92.93,9.53,2.78,2.61,1.85,3.92,4.82,3.92,8.89h-4.66c-.24-1.96-.75-3.47-1.53-4.52-1.45-1.91-3.91-2.87-7.39-2.87-2.81,0-4.82.62-6.05,1.85s-1.84,2.66-1.84,4.29c0,1.8.73,3.11,2.18,3.94.95.53,3.1,1.2,6.45,2l4.98,1.17c2.4.57,4.25,1.34,5.56,2.32,2.26,1.71,3.38,4.2,3.38,7.46,0,4.06-1.44,6.96-4.32,8.71-2.88,1.75-6.22,2.62-10.04,2.62-4.44,0-7.92-1.16-10.44-3.49-2.52-2.31-3.75-5.45-3.7-9.41h4.66Z"></path><path class="cls-1" d="M1233.29,211.18c2.43,3.24,3.64,7.39,3.64,12.45,0,5.47-1.39,10.02-4.17,13.65-3.26,4.26-7.91,6.39-13.95,6.39-5.64,0-10.07-1.86-13.3-5.59-2.88-3.59-4.32-8.13-4.32-13.62,0-4.96,1.23-9.2,3.69-12.72,3.16-4.52,7.83-6.79,14.02-6.79s11.26,2.08,14.37,6.24ZM1228.91,234.54c1.95-3.14,2.93-6.75,2.93-10.82,0-4.31-1.13-7.78-3.38-10.41-2.25-2.63-5.33-3.94-9.24-3.94s-6.89,1.3-9.28,3.91c-2.39,2.6-3.59,6.45-3.59,11.52,0,4.06,1.03,7.49,3.08,10.27,2.05,2.79,5.38,4.18,9.99,4.18s7.54-1.57,9.49-4.71Z"></path></g></svg>